<svg width="184" height="186" viewBox="0 0 184 186" fill="none" xmlns="http://www.w3.org/2000/svg">
<path d="M48.9583 180.833H22.5833C17.9199 180.833 13.4476 178.981 10.15 175.683C6.85252 172.386 5 167.913 5 163.25V101.708C5 97.0449 6.85252 92.5726 10.15 89.275C13.4476 85.9775 17.9199 84.125 22.5833 84.125H48.9583M110.5 66.5417V31.375C110.5 24.3799 107.721 17.6713 102.775 12.7251C97.8287 7.77879 91.1201 5 84.125 5L48.9583 84.125V180.833H148.128C152.369 180.881 156.484 179.395 159.715 176.649C162.946 173.902 165.076 170.08 165.712 165.887L177.844 86.7625C178.227 84.2424 178.057 81.6693 177.346 79.2215C176.635 76.7736 175.401 74.5095 173.728 72.5861C172.056 70.6626 169.985 69.1258 167.66 68.0821C165.334 67.0384 162.81 66.5128 160.261 66.5417H110.5Z" stroke="white" stroke-width="10" stroke-linecap="round" stroke-linejoin="round"/>
</svg>
